<?xml version="1.0" encoding="UTF-8" standalone="no"?>
<svg
   version="1.1"
   width="880"
   height="600"
   style="overflow: hidden; display: block;"
   id="svg4289"
   sodipodi:docname="poms_alg0_web.svg"
   inkscape:version="1.1.2 (0a00cf5339, 2022-02-04)"
   xmlns:inkscape="http://www.inkscape.org/namespaces/inkscape"
   xmlns:sodipodi="http://sodipodi.sourceforge.net/DTD/sodipodi-0.dtd"
   xmlns:xlink="http://www.w3.org/1999/xlink"
   xmlns="http://www.w3.org/2000/svg"
   xmlns:svg="http://www.w3.org/2000/svg">
  <sodipodi:namedview
     id="namedview4291"
     pagecolor="#ffffff"
     bordercolor="#666666"
     borderopacity="1.0"
     inkscape:pageshadow="2"
     inkscape:pageopacity="0.0"
     inkscape:pagecheckerboard="0"
     showgrid="false"
     inkscape:zoom="0.85817053"
     inkscape:cx="149.73714"
     inkscape:cy="286.07368"
     inkscape:window-width="1469"
     inkscape:window-height="882"
     inkscape:window-x="89"
     inkscape:window-y="165"
     inkscape:window-maximized="0"
     inkscape:current-layer="svg4289" />
  <defs
     id="defs4204">
    <pattern
       inkscape:collect="always"
       xlink:href="#pattern-cannonball"
       id="pattern4596"
       patternTransform="translate(110,135)" />
    <pattern
       inkscape:collect="always"
       xlink:href="#pattern-Rdiag"
       id="pattern4592"
       patternTransform="translate(140,145)" />
    <pattern
       inkscape:collect="always"
       xlink:href="#pattern-cgrid"
       id="pattern4588"
       patternTransform="translate(140,145)" />
    <!-- 20 -->
    <pattern
       id="pattern-xannonball_"
       patternUnits="userSpaceOnUse"
       width="12"
       height="12">
      <circle
         cx="0"
         cy="6"
         r="2"
         style="stroke: var(--pattern-channel-1, currentcolor)"
         fill="none"
         id="circle3896" />
      <circle
         cx="12"
         cy="6"
         r="2"
         style="stroke: var(--pattern-channel-1, currentcolor)"
         fill="none"
         id="circle3898" />
      <circle
         cx="6"
         cy="0"
         r="2"
         style="stroke: var(--pattern-channel-1, currentcolor)"
         fill="none"
         id="circle3900" />
      <circle
         cx="6"
         cy="12"
         r="2"
         style="stroke: var(--pattern-channel-1, currentcolor)"
         fill="none"
         id="circle3902" />
    </pattern>
    <!-- 20 dark green -->
    <pattern
       id="pattern-cannonball"
       patternUnits="userSpaceOnUse"
       width="12"
       height="12">
      <circle
         cx="0"
         cy="6"
         r="2"
         style="stroke: var(--pattern-channel-1, rgb(139,220,116))"
         fill="rgb(139,220,116)"
         id="circle3905" />
      <circle
         cx="12"
         cy="6"
         r="2"
         style="stroke: var(--pattern-channel-1, rgb(139,220,116))"
         fill="rgb(139,220,116)"
         id="circle3907" />
      <circle
         cx="6"
         cy="0"
         r="2"
         style="stroke: var(--pattern-channel-1, rgb(139,220,116))"
         fill="rgb(139,220,116)"
         id="circle3909" />
      <circle
         cx="6"
         cy="12"
         r="2"
         style="stroke: var(--pattern-channel-1, rgb(139,220,116))"
         fill="rgb(139,220,116)"
         id="circle3911" />
    </pattern>
    <!-- 20 dark green -->
    <pattern
       id="pattern-cannonball-big"
       patternUnits="userSpaceOnUse"
       width="18"
       height="18">
      <circle
         cx="0"
         cy="9"
         r="3"
         style="stroke: var(--pattern-channel-1, rgb(139,220,116))"
         fill="rgb(139,220,116)"
         id="circle3914" />
      <circle
         cx="18"
         cy="9"
         r="3"
         style="stroke: var(--pattern-channel-1, rgb(139,220,116))"
         fill="rgb(139,220,116)"
         id="circle3916" />
      <circle
         cx="9"
         cy="0"
         r="3"
         style="stroke: var(--pattern-channel-1, rgb(139,220,116))"
         fill="rgb(139,220,116)"
         id="circle3918" />
      <circle
         cx="9"
         cy="18"
         r="3"
         style="stroke: var(--pattern-channel-1, rgb(139,220,116))"
         fill="rgb(139,220,116)"
         id="circle3920" />
    </pattern>
    <pattern
       id="pattern-cannonball-huge"
       patternUnits="userSpaceOnUse"
       width="24"
       height="24">
      <circle
         cx="0"
         cy="12"
         r="4"
         style="stroke: var(--pattern-channel-1, rgb(139,220,116))"
         fill="rgb(139,220,116)"
         id="circle3923" />
      <circle
         cx="24"
         cy="12"
         r="4"
         style="stroke: var(--pattern-channel-1, rgb(139,220,116))"
         fill="rgb(139,220,116)"
         id="circle3925" />
      <circle
         cx="12"
         cy="0"
         r="4"
         style="stroke: var(--pattern-channel-1, rgb(139,220,116))"
         fill="rgb(139,220,116)"
         id="circle3927" />
      <circle
         cx="12"
         cy="24"
         r="4"
         style="stroke: var(--pattern-channel-1, rgb(139,220,116))"
         fill="rgb(139,220,116)"
         id="circle3929" />
    </pattern>
    <pattern
       id="pattern-cannonball_bak"
       patternUnits="userSpaceOnUse"
       width="12"
       height="12">
      <circle
         cx="0"
         cy="6"
         r="2"
         style="stroke: var(--pattern-channel-1, rgb(139,177,116))"
         fill="rgb(139,177,116)"
         id="circle3932" />
      <circle
         cx="12"
         cy="6"
         r="2"
         style="stroke: var(--pattern-channel-1, rgb(139,177,116))"
         fill="rgb(139,177,116)"
         id="circle3934" />
      <circle
         cx="6"
         cy="0"
         r="2"
         style="stroke: var(--pattern-channel-1, rgb(139,177,116))"
         fill="rgb(139,177,116)"
         id="circle3936" />
      <circle
         cx="6"
         cy="12"
         r="2"
         style="stroke: var(--pattern-channel-1, rgb(139,177,116))"
         fill="rgb(139,177,116)"
         id="circle3938" />
    </pattern>
    <!-- 20 -->
    <pattern
       id="pattern-cannonball-lg"
       patternUnits="userSpaceOnUse"
       width="12"
       height="12">
      <circle
         cx="0"
         cy="6"
         r="2"
         style="stroke: var(--pattern-channel-1, rgb(167,196,151))"
         fill="rgb(167,196,151)"
         id="circle3941" />
      <circle
         cx="12"
         cy="6"
         r="2"
         style="stroke: var(--pattern-channel-1, rgb(167,196,151))"
         fill="rgb(167,196,151)"
         id="circle3943" />
      <circle
         cx="6"
         cy="0"
         r="2"
         style="stroke: var(--pattern-channel-1, rgb(167,196,151))"
         fill="rgb(167,196,151)"
         id="circle3945" />
      <circle
         cx="6"
         cy="12"
         r="2"
         style="stroke: var(--pattern-channel-1, rgb(167,196,151))"
         fill="rgb(167,196,151)"
         id="circle3947" />
    </pattern>
    <!-- 23 -->
    <pattern
       id="pattern-sgrid"
       patternUnits="userSpaceOnUse"
       width="4"
       height="4">
      <rect
         width="2"
         height="2"
         x="0"
         y="0"
         fill="currentcolor"
         style="fill: var(--pattern-channel-1, currentcolor)"
         id="rect3950" />
    </pattern>
    <!-- 3 -->
    <pattern
       id="pattern-Rdiag_base"
       patternUnits="userSpaceOnUse"
       width="8"
       height="8">
      <path
         d="M-1,1 l4,-4 M0,8 l8,-8 M6,10 l4,-4"
         stroke="currentcolor"
         style="stroke: var(--pattern-channel-1, currentcolor)"
         id="path3953" />
    </pattern>
    <!-- 3 dark blue -->
    <pattern
       id="pattern-Rdiag"
       patternUnits="userSpaceOnUse"
       width="8"
       height="8">
      <path
         d="M-1,1 l4,-4 M0,8 l8,-8 M6,10 l4,-4"
         stroke="rgb(155,195,212)"
         style="stroke: var(--pattern-channel-1, rgb(155,195,212))"
         stroke-width="1.125"
         id="path3956" />
    </pattern>
    <pattern
       id="pattern-Rdiag-big"
       patternUnits="userSpaceOnUse"
       width="12"
       height="12">
      <path
         d="M-1.5,1.5 l6,-6 M0,12 l12,-12 M9,15 l6,-6"
         stroke="rgb(155,195,212)"
         style="stroke: var(--pattern-channel-1, rgb(155,195,212))"
         stroke-width="1.75"
         id="path3959" />
    </pattern>
    <!-- 31 -->
    <pattern
       id="pattern-cgrid"
       patternUnits="userSpaceOnUse"
       width="4"
       height="4">
      <circle
         cx="2"
         cy="2"
         r="1"
         fill="currentcolor"
         style="fill: var(--pattern-channel-1, currentcolor)"
         id="circle3962" />
    </pattern>
    <pattern
       id="pattern-cgrid-big"
       patternUnits="userSpaceOnUse"
       width="6"
       height="6">
      <circle
         cx="3"
         cy="3"
         r="1.5"
         fill="currentcolor"
         style="fill: var(--pattern-channel-1, currentcolor)"
         id="circle3965" />
    </pattern>
    <!-- 39 -->
    <pattern
       id="pattern-vwave"
       patternUnits="userSpaceOnUse"
       width="6"
       height="6">
      <path
         d="M5,-1 l2,2 M5,7 l2,-2"
         style="stroke: var(--pattern-channel-1, currentcolor)"
         fill="none"
         id="path3968" />
      <polyline
         points="0,0 3,3 0,6"
         style="stroke: var(--pattern-channel-1, currentcolor)"
         fill="none"
         id="polyline3970" />
    </pattern>
    <!-- 6 -->
    <pattern
       id="xxxpattern-ldiag_base"
       patternUnits="userSpaceOnUse"
       width="6"
       height="6">
      <path
         d="M7,1 l-2,-2 M0,0 l6,6 M1,7 l-2,-2"
         stroke="currentcolor"
         style="stroke: var(--pattern-channel-1, currentcolor)"
         id="path3973" />
    </pattern>
    <!-- 6 mid blue -->
    <pattern
       id="pattern-ldiag"
       patternUnits="userSpaceOnUse"
       width="6"
       height="6">
      <path
         d="M7,1 l-2,-2 M0,0 l6,6 M1,7 l-2,-2"
         stroke="rgb(164,216,224)"
         style="stroke: var(--pattern-channel-1, rgb(164,216,224))"
         id="path3976" />
    </pattern>
    <pattern
       id="pattern-ldiag-big"
       patternUnits="userSpaceOnUse"
       width="9"
       height="9">
      <path
         d="M10.5,1.5 l-3,-3 M0,0 l9,9 M1.5,10.5 l-3,-3"
         stroke="rgb(164,216,224)"
         style="stroke: var(--pattern-channel-1, rgb(164,216,224))"
         stroke-width="1.7"
         id="path3979" />
    </pattern>
    <pattern
       id="pattern-1"
       patternUnits="userSpaceOnUse"
       width="4"
       height="4">
      <path
         d="M-1,1 l2,-2 M0,4 l4,-4 M3,5 l2,-2"
         stroke="currentcolor"
         style="stroke: var(--pattern-channel-1, currentcolor)"
         id="path3982" />
    </pattern>
    <pattern
       id="pattern-10"
       patternUnits="userSpaceOnUse"
       width="4"
       height="4">
      <path
         d="M2,0 l0,4 M0,2 l4,0"
         stroke="currentcolor"
         style="stroke: var(--pattern-channel-1, currentcolor)"
         id="path3985" />
    </pattern>
    <pattern
       id="pattern-11"
       patternUnits="userSpaceOnUse"
       width="6"
       height="6">
      <path
         d="M3,0 l0,6 M0,3 l6,0"
         stroke="currentcolor"
         style="stroke: var(--pattern-channel-1, currentcolor)"
         id="path3988" />
    </pattern>
    <pattern
       id="pattern-12"
       patternUnits="userSpaceOnUse"
       width="8"
       height="8">
      <path
         d="M4,0 l0,8 M0,4 l8,0"
         stroke="currentcolor"
         style="stroke: var(--pattern-channel-1, currentcolor)"
         id="path3991" />
    </pattern>
    <pattern
       id="pattern-13"
       patternUnits="userSpaceOnUse"
       width="12"
       height="12">
      <path
         d="M6,0 l0,12 M0,6 l12,0"
         stroke="currentcolor"
         style="stroke: var(--pattern-channel-1, currentcolor)"
         id="path3994" />
    </pattern>
    <pattern
       id="pattern-14"
       patternUnits="userSpaceOnUse"
       width="6"
       height="6">
      <path
         d="M-1,5 l2,2 M5,7 l2,-2"
         style="stroke: var(--pattern-channel-1, currentcolor)"
         fill="none"
         id="path3997" />
      <polyline
         points="0,0 3,3 6,0"
         style="stroke: var(--pattern-channel-1, currentcolor)"
         fill="none"
         id="polyline3999" />
    </pattern>
    <pattern
       id="pattern-15"
       patternUnits="userSpaceOnUse"
       width="8"
       height="8">
      <path
         d="M-1,7 l2,2 M7,9 l2,-2"
         style="stroke: var(--pattern-channel-1, currentcolor)"
         fill="none"
         id="path4002" />
      <polyline
         points="0,0 4,4 8,0"
         style="stroke: var(--pattern-channel-1, currentcolor)"
         fill="none"
         id="polyline4004" />
    </pattern>
    <pattern
       id="pattern-16"
       patternUnits="userSpaceOnUse"
       width="12"
       height="12">
      <path
         d="M-1,11 l2,2 M11,13 l2,-2"
         style="stroke: var(--pattern-channel-1, currentcolor)"
         fill="none"
         id="path4007" />
      <polyline
         points="0,0 6,6 12,0"
         style="stroke: var(--pattern-channel-1, currentcolor)"
         fill="none"
         id="polyline4009" />
    </pattern>
    <pattern
       id="pattern-17"
       patternUnits="userSpaceOnUse"
       width="8"
       height="8">
      <circle
         cx="4"
         cy="4"
         r="2"
         style="stroke: var(--pattern-channel-1, currentcolor)"
         fill="none"
         id="circle4012" />
    </pattern>
    <pattern
       id="pattern-18"
       patternUnits="userSpaceOnUse"
       width="12"
       height="12">
      <circle
         cx="6"
         cy="6"
         r="3"
         style="stroke: var(--pattern-channel-1, currentcolor)"
         fill="none"
         id="circle4015" />
    </pattern>
    <pattern
       id="pattern-19"
       patternUnits="userSpaceOnUse"
       width="16"
       height="16">
      <circle
         cx="8"
         cy="8"
         r="4"
         style="stroke: var(--pattern-channel-1, currentcolor)"
         fill="none"
         id="circle4018" />
    </pattern>
    <pattern
       id="pattern-2"
       patternUnits="userSpaceOnUse"
       width="4"
       height="4">
      <path
         d="M0,0 l4,4              M-1,3 l2,2              M3,-1 l2,2"
         stroke="currentcolor"
         style="stroke: var(--pattern-channel-1, currentcolor)"
         id="path4021" />
    </pattern>
    <pattern
       id="pattern-20"
       patternUnits="userSpaceOnUse"
       width="12"
       height="12">
      <circle
         cx="0"
         cy="6"
         r="2"
         style="stroke: var(--pattern-channel-1, currentcolor)"
         fill="none"
         id="circle4024" />
      <circle
         cx="12"
         cy="6"
         r="2"
         style="stroke: var(--pattern-channel-1, currentcolor)"
         fill="none"
         id="circle4026" />
      <circle
         cx="6"
         cy="0"
         r="2"
         style="stroke: var(--pattern-channel-1, currentcolor)"
         fill="none"
         id="circle4028" />
      <circle
         cx="6"
         cy="12"
         r="2"
         style="stroke: var(--pattern-channel-1, currentcolor)"
         fill="none"
         id="circle4030" />
    </pattern>
    <pattern
       id="pattern-21"
       patternUnits="userSpaceOnUse"
       width="16"
       height="16">
      <circle
         cx="0"
         cy="8"
         r="3"
         style="stroke: var(--pattern-channel-1, currentcolor)"
         fill="none"
         id="circle4033" />
      <circle
         cx="16"
         cy="8"
         r="3"
         style="stroke: var(--pattern-channel-1, currentcolor)"
         fill="none"
         id="circle4035" />
      <circle
         cx="8"
         cy="0"
         r="3"
         style="stroke: var(--pattern-channel-1, currentcolor)"
         fill="none"
         id="circle4037" />
      <circle
         cx="8"
         cy="16"
         r="3"
         style="stroke: var(--pattern-channel-1, currentcolor)"
         fill="none"
         id="circle4039" />
    </pattern>
    <pattern
       id="pattern-22"
       patternUnits="userSpaceOnUse"
       width="24"
       height="24">
      <circle
         cx="0"
         cy="12"
         r="4"
         style="stroke: var(--pattern-channel-1, currentcolor)"
         fill="none"
         id="circle4042" />
      <circle
         cx="24"
         cy="12"
         r="4"
         style="stroke: var(--pattern-channel-1, currentcolor)"
         fill="none"
         id="circle4044" />
      <circle
         cx="12"
         cy="0"
         r="4"
         style="stroke: var(--pattern-channel-1, currentcolor)"
         fill="none"
         id="circle4046" />
      <circle
         cx="12"
         cy="24"
         r="4"
         style="stroke: var(--pattern-channel-1, currentcolor)"
         fill="none"
         id="circle4048" />
    </pattern>
    <pattern
       id="pattern-23"
       patternUnits="userSpaceOnUse"
       width="4"
       height="4">
      <rect
         width="2"
         height="2"
         x="0"
         y="0"
         fill="currentcolor"
         style="fill: var(--pattern-channel-1, currentcolor)"
         id="rect4051" />
    </pattern>
    <pattern
       id="pattern-24"
       patternUnits="userSpaceOnUse"
       width="6"
       height="6">
      <rect
         width="2"
         height="2"
         x="0"
         y="0"
         fill="currentcolor"
         style="fill: var(--pattern-channel-1, currentcolor)"
         id="rect4054" />
    </pattern>
    <pattern
       id="pattern-25"
       patternUnits="userSpaceOnUse"
       width="8"
       height="8">
      <rect
         width="2"
         height="2"
         x="0"
         y="0"
         fill="currentcolor"
         style="fill: var(--pattern-channel-1, currentcolor)"
         id="rect4057" />
    </pattern>
    <pattern
       id="pattern-26"
       patternUnits="userSpaceOnUse"
       width="12"
       height="12">
      <rect
         width="2"
         height="2"
         x="0"
         y="0"
         fill="currentcolor"
         style="fill: var(--pattern-channel-1, currentcolor)"
         id="rect4060" />
    </pattern>
    <pattern
       id="pattern-27"
       patternUnits="userSpaceOnUse"
       width="6"
       height="6">
      <path
         d="M2,2 l2,0 l0,2 l-2,0 l0,-2 M0,0 l1,0 l0,1 l-1,0 l0,-1 M5,0 l1,0 l0,1 l-1,0 l0,-1 M0,5 l1,0 l0,1 l-1,0 l0,-1 M5,5 l1,0 l0,1 l-1,0 l0,-1"
         fill="currentcolor"
         style="fill: var(--pattern-channel-1, currentcolor)"
         id="path4063" />
    </pattern>
    <pattern
       id="pattern-28"
       patternUnits="userSpaceOnUse"
       width="8"
       height="8">
      <path
         d="M3,3 l2,0 l0,2 l-2,0 l0,-2 M0,0 l1,0 l0,1 l-1,0 l0,-1 M7,0 l1,0 l0,1 l-1,0 l0,-1 M0,7 l1,0 l0,1 l-1,0 l0,-1 M7,7 l1,0 l0,1 l-1,0 l0,-1"
         fill="hotpink"
         style="fill: var(--pattern-channel-1, currentcolor)"
         id="path4066" />
    </pattern>
    <pattern
       id="pattern-29"
       patternUnits="userSpaceOnUse"
       width="12"
       height="12">
      <path
         d="M5,5 l2,0 l0,2 l-2,0 l0,-2 M0,0 l1,0 l0,1 l-1,0 l0,-1 M11,0 l1,0 l0,1 l-1,0 l0,-1 M0,11 l1,0 l0,1 l-1,0 l0,-1 M11,11 l1,0 l0,1 l-1,0 l0,-1"
         fill="hotpink"
         style="fill: var(--pattern-channel-1, currentcolor)"
         id="path4069" />
    </pattern>
    <pattern
       id="pattern-3"
       patternUnits="userSpaceOnUse"
       width="8"
       height="8">
      <path
         d="M-1,1 l4,-4 M0,8 l8,-8 M6,10 l4,-4"
         stroke="currentcolor"
         style="stroke: var(--pattern-channel-1, currentcolor)"
         id="path4072" />
    </pattern>
    <pattern
       id="pattern-30"
       patternUnits="userSpaceOnUse"
       width="16"
       height="16">
      <path
         d="M7,7 l2,0 l0,2 l-2,0 l0,-2 M0,0 l1,0 l0,1 l-1,0 l0,-1 M15,0 l1,0 l0,1 l-1,0 l0,-1 M0,15 l1,0 l0,1 l-1,0 l0,-1 M15,15 l1,0 l0,1 l-1,0 l0,-1"
         fill="hotpink"
         style="fill: var(--pattern-channel-1, currentcolor)"
         id="path4075" />
    </pattern>
    <pattern
       id="pattern-31"
       patternUnits="userSpaceOnUse"
       width="4"
       height="4">
      <circle
         cx="2"
         cy="2"
         r="1"
         fill="currentcolor"
         style="fill: var(--pattern-channel-1, currentcolor)"
         id="circle4078" />
    </pattern>
    <pattern
       id="pattern-32"
       patternUnits="userSpaceOnUse"
       width="6"
       height="6">
      <circle
         cx="3"
         cy="3"
         r="1"
         fill="currentcolor"
         style="fill: var(--pattern-channel-1, currentcolor)"
         id="circle4081" />
    </pattern>
    <pattern
       id="pattern-33"
       patternUnits="userSpaceOnUse"
       width="8"
       height="8">
      <circle
         cx="4"
         cy="4"
         r="1"
         fill="currentcolor"
         style="fill: var(--pattern-channel-1, currentcolor)"
         id="circle4084" />
    </pattern>
    <pattern
       id="pattern-34"
       patternUnits="userSpaceOnUse"
       width="12"
       height="12">
      <circle
         cx="6"
         cy="6"
         r="1"
         fill="currentcolor"
         style="fill: var(--pattern-channel-1, currentcolor)"
         id="circle4087" />
    </pattern>
    <pattern
       id="pattern-35"
       patternUnits="userSpaceOnUse"
       width="6"
       height="6">
      <circle
         cx="0"
         cy="0"
         r="1"
         fill="currentcolor"
         style="fill: var(--pattern-channel-1, currentcolor)"
         id="circle4090" />
      <circle
         cx="0"
         cy="6"
         r="1"
         fill="currentcolor"
         style="fill: var(--pattern-channel-1, currentcolor)"
         id="circle4092" />
      <circle
         cx="6"
         cy="6"
         r="1"
         fill="currentcolor"
         style="fill: var(--pattern-channel-1, currentcolor)"
         id="circle4094" />
      <circle
         cx="6"
         cy="0"
         r="1"
         fill="currentcolor"
         style="fill: var(--pattern-channel-1, currentcolor)"
         id="circle4096" />
      <circle
         cx="3"
         cy="3"
         r="1"
         fill="currentcolor"
         style="fill: var(--pattern-channel-1, currentcolor)"
         id="circle4098" />
    </pattern>
    <pattern
       id="pattern-36"
       patternUnits="userSpaceOnUse"
       width="8"
       height="8">
      <circle
         cx="0"
         cy="0"
         r="1"
         fill="currentcolor"
         style="fill: var(--pattern-channel-1, currentcolor)"
         id="circle4101" />
      <circle
         cx="0"
         cy="8"
         r="1"
         fill="currentcolor"
         style="fill: var(--pattern-cannel-1, currentcolor)"
         id="circle4103" />
      <circle
         cx="8"
         cy="8"
         r="1"
         fill="currentcolor"
         style="fill: var(--pattern-channel-1, currentcolor)"
         id="circle4105" />
      <circle
         cx="8"
         cy="0"
         r="1"
         fill="currentcolor"
         style="fill: var(--pattern-channel-1, currentcolor)"
         id="circle4107" />
      <circle
         cx="4"
         cy="4"
         r="1"
         fill="currentcolor"
         style="fill: var(--pattern-channel-1, currentcolor)"
         id="circle4109" />
    </pattern>
    <pattern
       id="pattern-37"
       patternUnits="userSpaceOnUse"
       width="12"
       height="12">
      <circle
         cx="0"
         cy="0"
         r="1"
         fill="currentcolor"
         style="fill: var(--pattern-channel-1, currentcolor)"
         id="circle4112" />
      <circle
         cx="0"
         cy="12"
         r="1"
         fill="currentcolor"
         style="fill: var(--pattern-channel-1, currentcolor)"
         id="circle4114" />
      <circle
         cx="12"
         cy="12"
         r="1"
         fill="currentcolor"
         style="fill: var(--pattern-channel-1, currentcolor)"
         id="circle4116" />
      <circle
         cx="12"
         cy="0"
         r="1"
         fill="currentcolor"
         style="fill: var(--pattern-channel-1, currentcolor)"
         id="circle4118" />
      <circle
         cx="6"
         cy="6"
         r="1"
         fill="currentcolor"
         style="fill: var(--pattern-channel-1, currentcolor)"
         id="circle4120" />
    </pattern>
    <pattern
       id="pattern-38"
       patternUnits="userSpaceOnUse"
       width="16"
       height="16">
      <circle
         cx="0"
         cy="0"
         r="1"
         fill="currentcolor"
         style="fill: var(--pattern-channel-1, currentcolor)"
         id="circle4123" />
      <circle
         cx="0"
         cy="16"
         r="1"
         fill="currentcolor"
         style="fill: var(--pattern-channel-1, currentcolor)"
         id="circle4125" />
      <circle
         cx="16"
         cy="16"
         r="1"
         fill="currentcolor"
         style="fill: var(--pattern-channel-1, currentcolor)"
         id="circle4127" />
      <circle
         cx="16"
         cy="0"
         r="1"
         fill="currentcolor"
         style="fill: var(--pattern-channel-1, currentcolor)"
         id="circle4129" />
      <circle
         cx="8"
         cy="8"
         r="1"
         fill="currentcolor"
         style="fill: var(--pattern-channel-1, currentcolor)"
         id="circle4131" />
    </pattern>
    <pattern
       id="pattern-39"
       patternUnits="userSpaceOnUse"
       width="6"
       height="6">
      <path
         d="M5,-1 l2,2 M5,7 l2,-2"
         style="stroke: var(--pattern-channel-1, currentcolor)"
         fill="none"
         id="path4134" />
      <polyline
         points="0,0 3,3 0,6"
         style="stroke: var(--pattern-channel-1, currentcolor)"
         fill="none"
         id="polyline4136" />
    </pattern>
    <pattern
       id="pattern-4"
       patternUnits="userSpaceOnUse"
       width="8"
       height="8">
      <path
         d="M0,0 l8,8              M-1,7 l4,4              M7,-1 l4,4"
         stroke="currentcolor"
         style="stroke: var(--pattern-channel-1, currentcolor)"
         id="path4139" />
    </pattern>
    <pattern
       id="pattern-40"
       patternUnits="userSpaceOnUse"
       width="8"
       height="8">
      <path
         d="M7,-1 l2,2 M7,9 l2,-2"
         style="stroke: var(--pattern-channel-1, currentcolor)"
         fill="none"
         id="path4142" />
      <polyline
         points="0,0 4,4 0,8"
         style="stroke: var(--pattern-channel-1, currentcolor)"
         fill="none"
         id="polyline4144" />
    </pattern>
    <pattern
       id="pattern-41"
       patternUnits="userSpaceOnUse"
       width="12"
       height="12">
      <path
         d="M11,-1 l2,2 M11,13 l2,-2"
         style="stroke: var(--pattern-channel-1, currentcolor)"
         fill="none"
         id="path4147" />
      <polyline
         points="0,0 6,6 0,12"
         style="stroke: var(--pattern-channel-1, currentcolor)"
         fill="none"
         id="polyline4149" />
    </pattern>
    <pattern
       id="pattern-5"
       patternUnits="userSpaceOnUse"
       width="6"
       height="6">
      <path
         d="M-1,1 l2,-2 M0,6 l6,-6 M5,7 l2,-2"
         stroke="currentcolor"
         style="stroke: var(--pattern-channel-1, currentcolor)"
         id="path4152" />
    </pattern>
    <pattern
       id="pattern-6"
       patternUnits="userSpaceOnUse"
       width="6"
       height="6">
      <path
         d="M7,1 l-2,-2 M0,0 l6,6 M1,7 l-2,-2"
         stroke="currentcolor"
         style="stroke: var(--pattern-channel-1, currentcolor)"
         id="path4155" />
    </pattern>
    <pattern
       id="pattern-7"
       patternUnits="userSpaceOnUse"
       width="6"
       height="6">
      <path
         d="M0,0 l6,6 M6,0 l-6,6"
         stroke="currentcolor"
         style="stroke: var(--pattern-channel-1, currentcolor)"
         id="path4158" />
    </pattern>
    <pattern
       id="pattern-8"
       patternUnits="userSpaceOnUse"
       width="8"
       height="8">
      <path
         d="M0,0 l8,8              M8,0 l-8,8"
         stroke="currentcolor"
         style="stroke: var(--pattern-channel-1, currentcolor)"
         id="path4161" />
    </pattern>
    <pattern
       id="pattern-9"
       patternUnits="userSpaceOnUse"
       width="12"
       height="12">
      <path
         d="M0,0 l12,12 M12,0 l-12,12"
         stroke="currentcolor"
         style="stroke: var(--pattern-channel-1, currentcolor)"
         id="path4164" />
    </pattern>
    <pattern
       id="pattern-5r"
       patternUnits="userSpaceOnUse"
       width="6"
       height="6">
      <path
         d="M-1,1 l2,-2 M0,6 l6,-6 M5,7 l2,-2"
         stroke="#ff0000"
         stroke-opacity="0.45"
         style="stroke: var(--pattern-channel-1, #ff0000)"
         id="path4167" />
    </pattern>
    <linearGradient
       id="two-36"
       x1="86.379091"
       y1="71.982119"
       x2="269.0564"
       y2="71.982119"
       spreadMethod="pad"
       gradientUnits="userSpaceOnUse"
       gradientTransform="scale(1.2097835,0.82659417)">
      <stop
         offset="0%"
         stop-color="rgb(47,55,55)"
         stop-opacity="0.025"
         id="stop4170" />
      <stop
         offset="100%"
         stop-color="rgb(47,55,55)"
         stop-opacity="0.3"
         id="stop4172" />
    </linearGradient>
    <linearGradient
       id="two-38"
       x1="695.3288"
       y1="40.987803"
       x2="797.79831"
       y2="40.987803"
       spreadMethod="pad"
       gradientUnits="userSpaceOnUse"
       gradientTransform="scale(0.68313005,1.4638501)">
      <stop
         offset="0%"
         stop-color="rgb(47,55,55)"
         stop-opacity="0.1"
         id="stop4175" />
      <stop
         offset="100%"
         stop-color="rgb(47,55,55)"
         stop-opacity="0.3"
         id="stop4177" />
    </linearGradient>
    <linearGradient
       id="two-82"
       x1="243.73141"
       y1="476.28247"
       x2="243.73141"
       y2="536.65631"
       spreadMethod="pad"
       gradientUnits="userSpaceOnUse"
       gradientTransform="scale(2.2360679,0.4472136)">
      <stop
         offset="0%"
         stop-color="rgb(47,55,55)"
         stop-opacity="0.025"
         id="stop4180" />
      <stop
         offset="100%"
         stop-color="rgb(47,55,55)"
         stop-opacity="0.1"
         id="stop4182" />
    </linearGradient>
    <linearGradient
       id="two-84"
       x1="6.8228822"
       y1="554.01805"
       x2="6.8228822"
       y2="791.45436"
       spreadMethod="pad"
       gradientUnits="userSpaceOnUse"
       gradientTransform="scale(2.1984843,0.45485883)">
      <stop
         offset="0%"
         stop-color="rgb(47,55,55)"
         stop-opacity="0.1"
         id="stop4185" />
      <stop
         offset="25%"
         stop-color="rgb(167,196,151)"
         stop-opacity="0.3"
         id="stop4187" />
      <stop
         offset="75%"
         stop-color="rgb(167,196,151)"
         stop-opacity="0.4"
         id="stop4189" />
      <stop
         offset="100%"
         stop-color="rgb(167,196,151)"
         stop-opacity="0.1"
         id="stop4191" />
    </linearGradient>
    <linearGradient
       id="two-86"
       x1="256.28464"
       y1="411.26147"
       x2="256.28464"
       y2="530.65997"
       spreadMethod="pad"
       gradientUnits="userSpaceOnUse"
       gradientTransform="scale(1.6583124,0.60302269)">
      <stop
         offset="0%"
         stop-color="rgb(47,55,55)"
         stop-opacity="0.1"
         id="stop4194" />
      <stop
         offset="100%"
         stop-color="rgb(233,114,76)"
         stop-opacity="0.9"
         id="stop4196" />
    </linearGradient>
    <linearGradient
       id="two-88"
       x1="815.86763"
       y1="196.06122"
       x2="815.86763"
       y2="252.98221"
       spreadMethod="pad"
       gradientUnits="userSpaceOnUse"
       gradientTransform="scale(0.79056942,1.2649111)">
      <stop
         offset="0%"
         stop-color="rgb(47,55,55)"
         stop-opacity="0.1"
         id="stop4199" />
      <stop
         offset="100%"
         stop-color="rgb(255,94,91)"
         stop-opacity="0.9"
         id="stop4201" />
    </linearGradient>
  </defs>
  <text
     id="two-16"
     font-family="Libertine, 'Linux Libertine O'"
     font-size="15px"
     line-height="17"
     text-anchor="middle"
     dominant-baseline="middle"
     font-style="normal"
     font-weight="500"
     text-decoration="none"
     direction="ltr"
     fill="#000000"
     stroke="none"
     stroke-width="1"
     opacity="1"
     visibility="visible"
     style="font-style:normal;font-variant:normal;font-weight:normal;font-stretch:normal;font-size:37.3333px;line-height:17;font-family:Libertine, 'Linux Libertine O';-inkscape-font-specification:'Libertine, Linux Libertine O, Normal';font-variant-ligatures:normal;font-variant-caps:normal;font-variant-numeric:normal;font-variant-east-asian:normal;text-decoration:none;text-decoration-line:none;direction:ltr;dominant-baseline:middle;text-anchor:middle;visibility:visible;opacity:1;fill:#000000;stroke:none;stroke-width:1"
     x="219.76636"
     y="21.660746">Grid partially realized</text>
  <path
     id="two-29"
     d="M 7,42 H 273 V 248 H 7 Z"
     fill="url(#pattern-cgrid)"
     stroke="none"
     stroke-width="0"
     stroke-opacity="1"
     fill-opacity="1"
     visibility="visible"
     stroke-linecap="butt"
     stroke-linejoin="miter"
     stroke-miterlimit="4"
     style="fill:url(#pattern4588)" />
  <path
     id="two-30"
     d="M 15,50 H 265 V 240 H 15 Z"
     fill="#ffffff"
     stroke="#000000"
     stroke-width="2"
     stroke-opacity="1"
     fill-opacity="1"
     visibility="visible"
     stroke-linecap="butt"
     stroke-linejoin="miter"
     stroke-miterlimit="4" />
  <path
     id="two-31"
     d="M 15,50 H 265 V 240 H 15 Z"
     fill="url(#pattern-Rdiag)"
     stroke="#000000"
     stroke-width="2"
     stroke-opacity="1"
     fill-opacity="1"
     visibility="visible"
     stroke-linecap="butt"
     stroke-linejoin="miter"
     stroke-miterlimit="4"
     style="fill:url(#pattern4592)" />
  <path
     id="two-32"
     d="M 15,220 H 35 V 150 H 85 V 63 H 205 V 50 H 15 Z"
     fill="#d2ffd2"
     stroke="#000000"
     stroke-width="1"
     stroke-opacity="1"
     fill-opacity="1"
     visibility="visible"
     stroke-linecap="butt"
     stroke-linejoin="miter"
     stroke-miterlimit="4" />
  <path
     id="two-33"
     d="M 15,220 H 35 V 150 H 85 V 63 H 205 V 50 H 15 Z"
     fill="url(#pattern-cannonball)"
     stroke="#000000"
     stroke-width="2"
     stroke-opacity="1"
     fill-opacity="1"
     visibility="visible"
     stroke-linecap="butt"
     stroke-linejoin="miter"
     stroke-miterlimit="4"
     style="fill:url(#pattern4596)" />
  <text
     xml:space="preserve"
     style="font-size:24px;line-height:1.25;font-family:'Linux Libertine Display O';-inkscape-font-specification:'Linux Libertine Display O, Normal';font-variant-ligatures:none"
     x="33.624153"
     y="308.55679"
     id="text2491"><tspan
       sodipodi:role="line"
       id="tspan2489"
       x="33.624153"
       y="308.55679" /></text>
  <text
     xml:space="preserve"
     style="font-style:normal;font-variant:normal;font-weight:normal;font-stretch:normal;font-size:34.6667px;line-height:1.25;font-family:'Linux Libertine Display O';-inkscape-font-specification:'Linux Libertine Display O, Normal';font-variant-ligatures:none;font-variant-caps:normal;font-variant-numeric:normal;font-variant-east-asian:normal"
     x="10.49653"
     y="282.91891"
     id="text13266"><tspan
       sodipodi:role="line"
       id="tspan13264"
       x="10.49653"
       y="282.91891">cells fully realized or </tspan><tspan
       sodipodi:role="line"
       x="10.49653"
       y="326.25229"
       id="tspan14888">  marked indeterminate</tspan></text>
</svg>
